<svg width="416" height="368" viewBox="0 0 416 368" fill="none" xmlns="http://www.w3.org/2000/svg">
<path d="M361.21 368C336.408 368 317.693 360.811 305.067 346.432C292.44 332.054 286.127 310.486 286.127 281.729V45.8315H132.579L130.605 368H73.7301V45.8315H0V0H416V45.8315H344.976V277.685C344.976 293.411 347.907 304.42 353.769 310.711C359.631 316.552 367.072 319.473 376.091 319.473C382.404 319.473 388.041 318.799 393.002 317.451C398.413 316.103 402.697 314.53 405.854 312.733V359.238C402.246 361.035 396.384 362.833 388.267 364.63C380.601 366.877 371.582 368 361.21 368Z" fill="url(#paint0_linear_43_141)"/>
<defs>
<linearGradient id="paint0_linear_43_141" x1="208" y1="0" x2="208" y2="368" gradientUnits="userSpaceOnUse">
<stop stop-color="#06121E"/>
<stop offset="1" stop-color="#00A6FF" stop-opacity="0"/>
</linearGradient>
</defs>
</svg>
