<svg width="223" height="38" viewBox="0 0 223 38" fill="none" xmlns="http://www.w3.org/2000/svg">
<path d="M63.3371 38C62.1753 38 61.1015 37.7185 60.1158 37.1556C59.1652 36.5926 58.4083 35.8361 57.845 34.8861C57.2817 33.9009 57 32.8278 57 31.6667V6.33333C57 5.17222 57.2817 4.11667 57.845 3.16667C58.4083 2.18148 59.1652 1.40741 60.1158 0.844443C61.1015 0.281481 62.1753 0 63.3371 0H94.9172V4.275H63.3371C62.7738 4.275 62.2809 4.48611 61.8585 4.90833C61.4712 5.29537 61.2776 5.77037 61.2776 6.33333V31.6667C61.2776 32.2296 61.4712 32.7222 61.8585 33.1444C62.2809 33.5315 62.7738 33.725 63.3371 33.725H94.9172V38H63.3371Z" fill="white"/>
<path d="M106.655 38C105.493 38 104.419 37.7185 103.434 37.1556C102.483 36.5926 101.726 35.8361 101.163 34.8861C100.599 33.9009 100.318 32.8278 100.318 31.6667V6.33333C100.318 5.17222 100.599 4.11667 101.163 3.16667C101.726 2.18148 102.483 1.40741 103.434 0.844443C104.419 0.281481 105.493 0 106.655 0H132.003C133.165 0 134.221 0.281481 135.172 0.844443C136.158 1.40741 136.932 2.18148 137.496 3.16667C138.059 4.11667 138.341 5.17222 138.341 6.33333V31.6667C138.341 32.8278 138.059 33.9009 137.496 34.8861C136.932 35.8361 136.158 36.5926 135.172 37.1556C134.221 37.7185 133.165 38 132.003 38H106.655ZM106.655 33.725H132.003C132.567 33.725 133.042 33.5315 133.429 33.1444C133.852 32.7222 134.063 32.2296 134.063 31.6667V6.33333C134.063 5.77037 133.852 5.29537 133.429 4.90833C133.042 4.48611 132.567 4.275 132.003 4.275H106.655C106.092 4.275 105.599 4.48611 105.176 4.90833C104.789 5.29537 104.595 5.77037 104.595 6.33333V31.6667C104.595 32.2296 104.789 32.7222 105.176 33.1444C105.599 33.5315 106.092 33.725 106.655 33.725Z" fill="white"/>
<path d="M144.262 38V0H175.948C177.109 0 178.166 0.281481 179.116 0.844443C180.102 1.40741 180.876 2.18148 181.44 3.16667C182.003 4.11667 182.285 5.17222 182.285 6.33333V31.6667C182.285 32.8278 182.003 33.9009 181.44 34.8861C180.876 35.8361 180.102 36.5926 179.116 37.1556C178.166 37.7185 177.109 38 175.948 38H144.262ZM150.599 33.725H175.948C176.511 33.725 176.986 33.5315 177.373 33.1444C177.796 32.7222 178.007 32.2296 178.007 31.6667V6.33333C178.007 5.77037 177.796 5.29537 177.373 4.90833C176.986 4.48611 176.511 4.275 175.948 4.275H150.599C150.036 4.275 149.543 4.48611 149.12 4.90833C148.733 5.29537 148.539 5.77037 148.539 6.33333V31.6667C148.539 32.2296 148.733 32.7222 149.12 33.1444C149.543 33.5315 150.036 33.725 150.599 33.725Z" fill="white"/>
<path d="M188.304 38V0H223V4.275H192.582V16.8361H217.033V21.1639H192.582V33.725H223V38H188.304Z" fill="white"/>
<path d="M37.3366 38C34.7729 38 32.8385 37.2576 31.5333 35.7729C30.2282 34.2882 29.5756 32.0611 29.5756 29.0916V4.7326H13.7041L13.5 38H7.62114V4.7326H0V0H43V4.7326H35.6585V28.674C35.6585 30.2979 35.9615 31.4347 36.5675 32.0842C37.1734 32.6874 37.9425 32.989 38.8748 32.989C39.5274 32.989 40.11 32.9194 40.6228 32.7802C41.1821 32.641 41.6249 32.4786 41.9512 32.293V37.0952C41.5783 37.2808 40.9724 37.4664 40.1333 37.652C39.3409 37.884 38.4087 38 37.3366 38Z" fill="#00A6FF"/>
</svg>
